<?xml version="1.0" encoding="utf-8"?>
<!-- Generator: Adobe Illustrator 18.0.0, SVG Export Plug-In . SVG Version: 6.00 Build 0)  -->
<!DOCTYPE svg PUBLIC "-//W3C//DTD SVG 1.1//EN" "http://www.w3.org/Graphics/SVG/1.1/DTD/svg11.dtd">
<svg version="1.1" id="图层_1" xmlns="http://www.w3.org/2000/svg" xmlns:xlink="http://www.w3.org/1999/xlink" x="0px" y="0px"
	 viewBox="12 139 116 31.6" enable-background="new 12 139 116 31.6" xml:space="preserve">
<g>
	<g>
		<g>
			<path fill="#FFFFFF" d="M14.4,170.1L12,149.5h5.5l1.1,14.3h0.1l9.5-18.8h5.7l-13.3,25L14.4,170.1L14.4,170.1z"/>
		</g>
		<g>
			<path fill="#FFFFFF" d="M38.8,152L35,170.1h-5l3.8-18.1H38.8z M34.4,149.2l0.9-4.1h5l-0.9,4.1H34.4z"/>
		</g>
		<g>
			<path fill="#FFFFFF" d="M52.2,167.8c-0.6,1-1.3,1.7-2.3,2.1c-1,0.4-2,0.6-3.1,0.6c-2.2,0-3.9-0.6-5.1-1.9c-1.2-1.3-1.8-3-1.8-5.2
				c0-1.5,0.2-2.9,0.6-4.4c0.4-1.5,1-2.7,1.8-3.8c0.8-1.1,1.8-2,3.1-2.7c1.2-0.7,2.7-1,4.4-1c1,0,2.1,0.2,3,0.7c1,0.5,1.6,1.2,2,2.2
				h0.1l2-9.3h5l-5.3,25h-4.8L52.2,167.8L52.2,167.8z M47.8,156c-0.7,0.5-1.2,1.1-1.7,1.8c-0.4,0.7-0.8,1.6-1,2.4
				c-0.2,0.8-0.3,1.7-0.3,2.5c0,0.5,0.1,1,0.2,1.5c0.1,0.5,0.4,0.9,0.7,1.3c0.3,0.4,0.7,0.6,1.1,0.9c0.4,0.2,0.9,0.3,1.5,0.3
				c0.9,0,1.7-0.2,2.4-0.7c0.7-0.5,1.2-1.1,1.7-1.9c0.4-0.8,0.8-1.6,1-2.5c0.2-0.9,0.3-1.7,0.3-2.5c0-1.2-0.3-2.1-0.9-2.8
				c-0.6-0.7-1.5-1.1-2.7-1.1C49.3,155.3,48.5,155.5,47.8,156z"/>
		</g>
		<g>
			<path fill="#FFFFFF" d="M66,162.6c0,0.1,0,0.2,0,0.3v0.4c0,1,0.3,1.9,1,2.6c0.6,0.6,1.7,1,3,1c0.5,0,0.9-0.1,1.3-0.2
				c0.4-0.1,0.7-0.3,1-0.6c0.3-0.3,0.5-0.5,0.8-0.8c0.2-0.3,0.4-0.6,0.6-0.9h5c-0.4,1-0.9,1.9-1.4,2.7s-1.2,1.4-1.9,1.9
				c-0.7,0.5-1.6,0.9-2.6,1.2c-1,0.2-2.1,0.4-3.4,0.4c-1.2,0-2.3-0.2-3.3-0.5c-1-0.3-1.8-0.8-2.5-1.5c-0.7-0.7-1.2-1.5-1.6-2.5
				c-0.4-1-0.6-2.1-0.6-3.4c0-1.4,0.2-2.8,0.7-4.2c0.5-1.3,1.1-2.5,2-3.6c0.8-1,1.9-1.9,3.1-2.5c1.2-0.6,2.6-0.9,4.2-0.9
				c1.3,0,2.4,0.2,3.4,0.5c1,0.3,1.9,0.8,2.7,1.5c0.7,0.7,1.3,1.5,1.7,2.5c0.4,1,0.6,2.1,0.6,3.4c0,0.9-0.1,1.8-0.3,2.8H66
				C66,162.4,66,162.5,66,162.6z M74.7,157.7c-0.1-0.4-0.2-0.9-0.5-1.2c-0.2-0.4-0.6-0.7-1-0.9c-0.4-0.2-1-0.3-1.7-0.3
				s-1.3,0.1-1.9,0.3c-0.5,0.2-1,0.5-1.4,0.8c-0.4,0.3-0.7,0.8-1,1.2c-0.3,0.5-0.5,1-0.7,1.5h8.3C74.8,158.7,74.8,158.2,74.7,157.7z
				"/>
		</g>
		<g>
			<path fill="#FFFFFF" d="M82,158.4c0.5-1.4,1.2-2.6,2.1-3.6c0.9-1,2-1.8,3.3-2.4s2.7-0.9,4.3-0.9c1.2,0,2.4,0.1,3.4,0.5
				c1,0.3,1.9,0.8,2.7,1.4c0.7,0.6,1.3,1.4,1.7,2.4c0.4,1,0.6,2.1,0.6,3.4c0,1.6-0.2,3.1-0.7,4.5s-1.2,2.6-2.1,3.6
				c-0.9,1-2,1.8-3.3,2.4s-2.8,0.9-4.4,0.9c-2.5,0-4.5-0.6-6-1.9s-2.3-3.2-2.3-5.8C81.3,161.3,81.6,159.8,82,158.4z M86.5,164.4
				c0.1,0.5,0.4,0.9,0.7,1.3c0.3,0.4,0.7,0.7,1.1,0.9s1,0.3,1.5,0.3c0.9,0,1.7-0.2,2.4-0.7s1.2-1.1,1.6-1.9c0.4-0.7,0.7-1.6,1-2.5
				c0.2-0.9,0.3-1.7,0.3-2.5c0-1.2-0.3-2.2-0.8-2.9s-1.5-1.1-2.8-1.1c-0.9,0-1.7,0.2-2.4,0.7c-0.7,0.5-1.2,1.1-1.6,1.9
				c-0.4,0.7-0.7,1.6-0.9,2.4c-0.2,0.9-0.3,1.7-0.3,2.5C86.3,163.3,86.4,163.9,86.5,164.4z"/>
		</g>
	</g>
	<g>
		<path fill="#FFFFFF" d="M107.8,139.3v4.3h4.3v3.3h-4.3v4.3h-3.3v-4.3h-4.3v-3.3h4.3v-4.3H107.8z"/>
	</g>
	<g>
		<path fill="#FFFFFF" d="M123.7,151.6h-4v-4.3h-4.3v-4h4.3V139h4v4.3h4.3v4h-4.3V151.6z M120.4,150.9h2.6v-4.3h4.3V144H123v-4.3
			h-2.6v4.3h-4.3v2.6h4.3C120.4,146.6,120.4,150.9,120.4,150.9z"/>
	</g>
</g>
</svg>
